<?xml version="1.0" encoding="UTF-8" standalone="no"?>
<!-- Generator: Adobe Illustrator 19.0.0, SVG Export Plug-In . SVG Version: 6.00 Build 0)  -->

<svg
   xmlns:dc="http://purl.org/dc/elements/1.1/"
   xmlns:cc="http://creativecommons.org/ns#"
   xmlns:rdf="http://www.w3.org/1999/02/22-rdf-syntax-ns#"
   xmlns:svg="http://www.w3.org/2000/svg"
   xmlns="http://www.w3.org/2000/svg"
   xmlns:sodipodi="http://sodipodi.sourceforge.net/DTD/sodipodi-0.dtd"
   xmlns:inkscape="http://www.inkscape.org/namespaces/inkscape"
   version="1.1"
   id="Layer_1"
   x="0px"
   y="0px"
   viewBox="241 10.9 1026.8436 428.88308"
   xml:space="preserve"
   inkscape:version="0.48.4 r9939"
   width="100%"
   height="100%"
   sodipodi:docname="serlo_logo_w_slogan.svg"><metadata
     id="metadata3228"><rdf:RDF><cc:Work
         rdf:about=""><dc:format>image/svg+xml</dc:format><dc:type
           rdf:resource="http://purl.org/dc/dcmitype/StillImage" /><dc:title></dc:title></cc:Work></rdf:RDF></metadata><defs
     id="defs3226" /><sodipodi:namedview
     pagecolor="#ffffff"
     bordercolor="#666666"
     borderopacity="1"
     objecttolerance="10"
     gridtolerance="10"
     guidetolerance="10"
     inkscape:pageopacity="0"
     inkscape:pageshadow="2"
     inkscape:window-width="1920"
     inkscape:window-height="1028"
     id="namedview3224"
     showgrid="false"
     showguides="true"
     inkscape:guide-bbox="true"
     fit-margin-top="40"
     fit-margin-left="40"
     fit-margin-right="40"
     fit-margin-bottom="40"
     inkscape:zoom="0.86445013"
     inkscape:cx="551.34286"
     inkscape:cy="483.07109"
     inkscape:window-x="0"
     inkscape:window-y="0"
     inkscape:window-maximized="1"
     inkscape:current-layer="Layer_1" /><style
     type="text/css"
     id="style3168">
	.st0{enable-background:new    ;}
	.st1{fill:#414141;}
	.st2{fill:#097EBE;}
</style><g
     id="XMLID_44_"
     class="st0"
     style="enable-background:new"
     transform="translate(248.04356,150.68308)"><path
       id="XMLID_54_"
       class="st1"
       d="m 316.4,161.6 c -6.3,0 -11.8,-0.5 -16.5,-1.6 -4.7,-1.1 -8.6,-2.5 -11.7,-4.3 -3.1,-1.9 -5.5,-4.1 -7,-6.6 -1.5,-2.5 -2.3,-5.2 -2.3,-8.2 0,-2.2 0.5,-4.2 1.4,-5.8 1,-1.6 2.3,-3 4.1,-4.2 1.8,-1.1 3.8,-2 6.2,-2.5 2.4,-0.6 5.1,-0.8 8,-0.8 0,4.3 0.5,8.1 1.5,11.3 1,3.2 2.4,5.8 4.2,7.9 1.8,2.1 3.9,3.7 6.4,4.7 2.5,1 5.2,1.5 8.2,1.5 2.9,0 5.4,-0.4 7.7,-1.1 2.2,-0.8 4.1,-1.8 5.7,-3.1 1.6,-1.3 2.7,-2.8 3.6,-4.7 0.8,-1.8 1.2,-3.7 1.2,-5.7 0,-2 -0.3,-3.8 -0.8,-5.5 -0.5,-1.7 -1.5,-3.3 -2.9,-4.8 -1.4,-1.6 -3.3,-3.2 -5.7,-4.8 -2.4,-1.6 -5.6,-3.4 -9.4,-5.3 -4,-2.1 -7.4,-4.2 -10.4,-6.3 -3,-2.1 -5.5,-4.5 -7.5,-7 -2,-2.5 -3.5,-5.2 -4.5,-8.2 -1,-3 -1.5,-6.3 -1.5,-10.1 0,-4.3 0.9,-8.2 2.8,-11.7 1.8,-3.6 4.4,-6.6 7.9,-9.2 3.4,-2.6 7.5,-4.6 12.4,-5.9 4.8,-1.4 10.3,-2.1 16.3,-2.1 5.6,0 10.6,0.4 14.8,1.2 4.2,0.8 7.7,2 10.5,3.4 2.8,1.5 4.9,3.1 6.3,5.1 1.4,1.9 2.1,4 2.1,6.2 0,3.8 -1.6,6.8 -4.7,9.1 -3.1,2.2 -8.2,3.3 -15.3,3.3 0,-2.2 -0.2,-4.4 -0.7,-6.7 -0.4,-2.3 -1.2,-4.4 -2.4,-6.3 -1.1,-1.9 -2.7,-3.5 -4.6,-4.7 -1.9,-1.3 -4.4,-1.9 -7.4,-1.9 -2,0 -4,0.3 -6,0.9 -2,0.6 -3.8,1.5 -5.4,2.7 -1.6,1.2 -2.9,2.7 -3.9,4.5 -1,1.8 -1.5,4 -1.5,6.5 0,2.5 0.4,4.6 1.3,6.4 0.8,1.7 2.1,3.4 3.8,4.9 1.7,1.5 3.8,2.9 6.3,4.4 2.5,1.4 5.5,3 8.9,4.7 7.7,3.9 13.3,8.2 17,12.8 3.7,4.7 5.5,10.1 5.5,16.2 0,5 -1,9.5 -2.9,13.4 -1.9,3.9 -4.7,7.2 -8.4,9.9 -3.6,2.7 -8,4.7 -13.2,6.1 -5.3,1.3 -11.1,2 -17.5,2 z"
       inkscape:connector-curvature="0"
       style="fill:#414141" /><path
       id="XMLID_51_"
       class="st1"
       d="m 413.5,150.8 c 2.5,0 4.8,-0.3 7.1,-1 2.2,-0.7 4.3,-1.6 6.2,-2.6 1.9,-1.1 3.6,-2.3 5.1,-3.7 1.5,-1.4 2.8,-2.8 3.9,-4.2 0.6,0.7 1.1,1.6 1.4,2.7 0.3,1.1 0.5,2.2 0.5,3.4 0,1.7 -0.6,3.5 -1.8,5.4 -1.2,1.9 -3,3.7 -5.5,5.2 -2.4,1.6 -5.6,2.9 -9.4,3.9 -3.8,1 -8.3,1.6 -13.5,1.6 -4.6,0 -9,-0.6 -13.1,-1.8 -4.1,-1.2 -7.7,-3 -10.8,-5.5 -3.1,-2.4 -5.5,-5.4 -7.3,-9.1 -1.8,-3.7 -2.7,-8 -2.7,-12.9 0,-3.5 0.5,-7.2 1.5,-11 1,-3.8 2.5,-7.6 4.4,-11.3 1.9,-3.7 4.4,-7.1 7.3,-10.5 2.9,-3.3 6.2,-6.2 10.1,-8.7 3.8,-2.5 8.1,-4.5 12.8,-5.9 4.7,-1.4 9.9,-2.2 15.5,-2.2 7.3,0 12.9,1.5 16.9,4.4 4,2.9 6,7 6,12.3 0,3.8 -1.1,7.5 -3.4,11 -2.3,3.5 -5.4,6.6 -9.4,9.3 -4,2.7 -8.8,4.8 -14.3,6.3 -5.5,1.6 -11.6,2.4 -18.1,2.4 -0.8,0 -1.8,0 -2.8,0 -1,0 -2,-0.1 -2.9,-0.2 -0.1,0.9 -0.2,1.9 -0.2,2.8 0,0.9 0,1.8 0,2.6 0,5.5 1.4,9.7 4.1,12.7 2.7,3.1 6.8,4.6 12.4,4.6 z m 5.3,-59.6 c -2.5,0 -4.8,0.9 -7.1,2.6 -2.2,1.8 -4.2,4 -6,6.8 -1.8,2.8 -3.3,5.9 -4.6,9.3 -1.3,3.5 -2.2,6.8 -2.8,10.2 h 1.3 c 3.8,0 7.3,-0.5 10.5,-1.4 3.2,-0.9 6.1,-2.3 8.4,-4 2.4,-1.8 4.3,-3.8 5.6,-6.2 1.4,-2.4 2,-5.1 2,-8.1 0,-2.9 -0.6,-5.2 -1.9,-6.8 -1.2,-1.6 -3,-2.4 -5.4,-2.4 z"
       inkscape:connector-curvature="0"
       style="fill:#414141" /><path
       id="XMLID_49_"
       class="st1"
       d="m 473.2,96.6 c 0,-1.8 -0.6,-3 -1.8,-3.8 -1.3,-0.8 -3.3,-1.1 -6.2,-1.1 h -2.7 l 1.3,-7.5 h 33.6 l -3.2,19.5 h 0.7 c 1.7,-3.4 3.5,-6.5 5.2,-9 1.8,-2.6 3.7,-4.7 5.8,-6.5 2.1,-1.7 4.5,-3.1 7.2,-4 2.7,-0.9 5.8,-1.3 9.3,-1.3 5.4,0 9.4,0.9 12,2.8 2.6,1.9 3.9,4.7 3.9,8.3 0,4.9 -1.5,8.6 -4.6,10.9 -3.1,2.4 -7.5,3.6 -13.3,3.6 0,-2.2 -0.1,-4 -0.4,-5.8 -0.2,-1.7 -0.6,-3.2 -1.2,-4.4 -0.6,-1.2 -1.3,-2.1 -2.3,-2.8 -1,-0.6 -2.2,-1 -3.6,-1 -1.4,0 -2.9,0.5 -4.5,1.6 -1.6,1.1 -3.2,2.6 -4.8,4.5 -1.6,1.9 -3.1,4.1 -4.6,6.7 -1.5,2.6 -3,5.5 -4.3,8.5 -1.4,3.1 -2.7,6.3 -3.8,9.7 -1.1,3.4 -2.1,6.8 -2.9,10.2 l -5.8,24.6 h -22.9 l 12.9,-57 c 0.2,-0.8 0.3,-1.8 0.6,-3.1 0.3,-1.5 0.4,-2.6 0.4,-3.6 z"
       inkscape:connector-curvature="0"
       style="fill:#414141" /><path
       id="XMLID_48_"
       class="st1"
       d="m 572.6,150.3 c 1.6,0 3,-0.3 4.4,-0.8 1.3,-0.5 2.9,-1.3 4.6,-2.4 l 3.6,4.8 c -1.2,1.2 -2.5,2.4 -4.1,3.5 -1.5,1.2 -3.3,2.2 -5.2,3.2 -1.9,1 -4,1.7 -6.3,2.2 -2.3,0.6 -4.9,0.8 -7.7,0.8 -5.8,0 -10.3,-1.3 -13.4,-3.9 -3.1,-2.5 -4.7,-6.1 -4.7,-10.7 0,-4.1 0.8,-9.7 2.4,-16.9 l 13.2,-58.2 c 0.2,-0.6 0.3,-1.2 0.5,-1.9 0.1,-0.6 0.3,-1.2 0.4,-1.8 0.1,-0.6 0.2,-1.1 0.2,-1.5 0,-0.4 0.1,-0.7 0.1,-0.9 0,-1.3 -0.1,-2.3 -0.4,-3.1 -0.3,-0.8 -0.8,-1.4 -1.4,-1.8 -0.6,-0.4 -1.5,-0.7 -2.5,-0.8 -1,-0.1 -2.3,-0.2 -3.7,-0.2 h -3.2 l 1.4,-7.5 h 36.7 l -18.1,77.9 c -0.6,2.6 -1.1,5 -1.5,7.2 -0.4,2.2 -0.6,4.3 -0.6,6.3 0,2.1 0.5,3.7 1.4,4.8 0.9,1.1 2.2,1.7 3.9,1.7 z"
       inkscape:connector-curvature="0"
       style="fill:#414141" /><path
       id="XMLID_45_"
       class="st1"
       d="m 595.7,131.8 c 0,-3.6 0.4,-7.2 1.3,-11 0.9,-3.8 2.2,-7.5 4,-11.1 1.8,-3.7 4.1,-7.2 6.8,-10.4 2.7,-3.2 5.9,-6.1 9.6,-8.5 3.7,-2.5 7.9,-4.4 12.6,-5.8 4.7,-1.4 9.9,-2.1 15.5,-2.1 4.3,0 8.5,0.6 12.3,1.7 3.9,1.1 7.2,2.9 10.1,5.3 2.9,2.4 5.2,5.5 6.8,9.3 1.7,3.8 2.5,8.3 2.5,13.6 0,3.4 -0.4,7 -1.3,10.7 -0.8,3.8 -2.1,7.4 -3.9,11 -1.8,3.6 -4,7.1 -6.7,10.4 -2.7,3.3 -5.9,6.2 -9.5,8.7 -3.7,2.5 -7.8,4.5 -12.5,5.9 -4.7,1.5 -9.8,2.2 -15.6,2.2 -4.7,0 -9.1,-0.6 -13.1,-1.8 -3.9,-1.2 -7.3,-3.1 -10.2,-5.5 -2.8,-2.5 -5,-5.6 -6.6,-9.4 -1.3,-3.9 -2.1,-8.2 -2.1,-13.2 z m 35,19.6 c 2.7,0 5.2,-0.7 7.4,-2.2 2.2,-1.5 4.2,-3.4 5.9,-5.8 1.8,-2.4 3.3,-5.1 4.6,-8.1 1.3,-3.1 2.3,-6.2 3.2,-9.5 0.8,-3.2 1.4,-6.4 1.8,-9.5 0.4,-3.1 0.6,-6 0.6,-8.4 0,-5.6 -1,-9.6 -3.1,-12 -2.1,-2.5 -4.9,-3.7 -8.4,-3.7 -2.6,0 -4.9,0.7 -7.1,2 -2.2,1.4 -4.2,3.3 -5.9,5.5 -1.8,2.3 -3.3,4.9 -4.6,7.9 -1.3,3 -2.5,6.1 -3.4,9.3 -0.9,3.2 -1.6,6.4 -2,9.5 -0.4,3.1 -0.7,6 -0.7,8.7 0,5.7 1,9.9 3.1,12.4 2.1,2.6 4.9,3.9 8.6,3.9 z"
       inkscape:connector-curvature="0"
       style="fill:#414141" /></g><g
     id="g3176"
     transform="translate(248.04356,150.68308)"><path
       class="st2"
       d="m 295.9,238 h -7.1 v -27.4 h -9 v -5.9 H 305 v 5.9 h -9 V 238 z"
       id="path3178"
       inkscape:connector-curvature="0"
       style="fill:#097ebe" /><path
       class="st2"
       d="m 333,238 h -6.9 v -14.9 c 0,-3.7 -1.4,-5.5 -4.1,-5.5 -1.9,0 -3.3,0.7 -4.2,2 -0.9,1.3 -1.3,3.5 -1.3,6.4 v 12 h -6.9 v -35.4 h 6.9 v 7.2 c 0,0.6 -0.1,1.9 -0.2,4 l -0.2,2 h 0.4 c 1.5,-2.5 4,-3.7 7.4,-3.7 3,0 5.3,0.8 6.8,2.4 1.5,1.6 2.3,3.9 2.3,6.9 V 238 z"
       id="path3180"
       inkscape:connector-curvature="0"
       style="fill:#097ebe" /><path
       class="st2"
       d="m 351.7,238.4 c -4.1,0 -7.3,-1.1 -9.6,-3.4 -2.3,-2.3 -3.5,-5.5 -3.5,-9.6 0,-4.3 1.1,-7.6 3.2,-9.9 2.1,-2.3 5.1,-3.5 8.8,-3.5 3.6,0 6.4,1 8.4,3.1 2,2 3,4.9 3,8.5 v 3.4 h -16.4 c 0.1,2 0.7,3.5 1.8,4.6 1.1,1.1 2.6,1.7 4.6,1.7 1.5,0 3,-0.2 4.3,-0.5 1.4,-0.3 2.8,-0.8 4.3,-1.5 v 5.4 c -1.2,0.6 -2.5,1.1 -3.9,1.4 -1.3,0.2 -3,0.3 -5,0.3 z m -1,-21.4 c -1.5,0 -2.6,0.5 -3.5,1.4 -0.8,0.9 -1.3,2.3 -1.4,4 h 9.7 c 0,-1.7 -0.5,-3 -1.3,-4 -0.9,-1 -2,-1.4 -3.5,-1.4 z"
       id="path3182"
       inkscape:connector-curvature="0"
       style="fill:#097ebe" /><path
       class="st2"
       d="m 410.6,221.3 c 0,5.5 -1.4,9.7 -4.1,12.7 -2.7,3 -6.6,4.4 -11.7,4.4 -5.1,0 -9,-1.5 -11.7,-4.4 -2.7,-2.9 -4.1,-7.2 -4.1,-12.7 0,-5.5 1.4,-9.8 4.1,-12.7 2.7,-2.9 6.7,-4.4 11.8,-4.4 5.1,0 9,1.5 11.7,4.4 2.6,2.9 4,7.2 4,12.7 z m -24.3,0 c 0,3.7 0.7,6.5 2.1,8.4 1.4,1.9 3.5,2.8 6.3,2.8 5.6,0 8.4,-3.7 8.4,-11.2 0,-7.5 -2.8,-11.2 -8.4,-11.2 -2.8,0 -4.9,0.9 -6.4,2.8 -1.3,1.9 -2,4.7 -2,8.4 z"
       id="path3184"
       inkscape:connector-curvature="0"
       style="fill:#097ebe" /><path
       class="st2"
       d="m 430.9,238.4 c -3,0 -5.3,-1.1 -7,-3.3 h -0.4 c 0.2,2.1 0.4,3.4 0.4,3.7 v 10.3 H 417 v -36.6 h 5.6 l 1,3.3 h 0.3 c 1.6,-2.5 4,-3.8 7.2,-3.8 3,0 5.4,1.2 7.1,3.5 1.7,2.3 2.5,5.5 2.5,9.7 0,2.7 -0.4,5.1 -1.2,7.1 -0.8,2 -1.9,3.5 -3.4,4.6 -1.5,1 -3.2,1.5 -5.2,1.5 z m -2.1,-20.8 c -1.7,0 -3,0.5 -3.8,1.6 -0.8,1.1 -1.2,2.8 -1.2,5.2 v 0.8 c 0,2.7 0.4,4.7 1.2,5.9 0.8,1.2 2.1,1.8 3.9,1.8 3.1,0 4.7,-2.6 4.7,-7.7 0,-2.5 -0.4,-4.4 -1.1,-5.6 -0.8,-1.4 -2,-2 -3.7,-2 z"
       id="path3186"
       inkscape:connector-curvature="0"
       style="fill:#097ebe" /><path
       class="st2"
       d="m 457.9,238.4 c -4.1,0 -7.3,-1.1 -9.6,-3.4 -2.3,-2.3 -3.5,-5.5 -3.5,-9.6 0,-4.3 1.1,-7.6 3.2,-9.9 2.1,-2.3 5.1,-3.5 8.8,-3.5 3.6,0 6.4,1 8.4,3.1 2,2 3,4.9 3,8.5 v 3.4 h -16.4 c 0.1,2 0.7,3.5 1.8,4.6 1.1,1.1 2.6,1.7 4.6,1.7 1.5,0 3,-0.2 4.3,-0.5 1.4,-0.3 2.8,-0.8 4.3,-1.5 v 5.4 c -1.2,0.6 -2.5,1.1 -3.9,1.4 -1.3,0.2 -3,0.3 -5,0.3 z M 457,217 c -1.5,0 -2.6,0.5 -3.5,1.4 -0.8,0.9 -1.3,2.3 -1.4,4 h 9.7 c 0,-1.7 -0.5,-3 -1.3,-4 -0.9,-1 -2.1,-1.4 -3.5,-1.4 z"
       id="path3188"
       inkscape:connector-curvature="0"
       style="fill:#097ebe" /><path
       class="st2"
       d="m 497.5,238 h -6.9 v -14.9 c 0,-1.8 -0.3,-3.2 -1,-4.1 -0.7,-0.9 -1.7,-1.4 -3.1,-1.4 -1.9,0 -3.3,0.6 -4.2,1.9 -0.9,1.3 -1.3,3.4 -1.3,6.5 v 12 h -7 v -25.4 h 5.3 l 0.9,3.3 h 0.4 c 0.8,-1.2 1.8,-2.2 3.2,-2.8 1.4,-0.6 2.9,-0.9 4.6,-0.9 3,0 5.2,0.8 6.7,2.4 1.5,1.6 2.3,3.9 2.3,6.9 V 238 z"
       id="path3190"
       inkscape:connector-curvature="0"
       style="fill:#097ebe" /><path
       class="st2"
       d="m 517.3,238 v -33.3 h 7.1 v 27.5 h 13.5 v 5.8 h -20.6 z"
       id="path3192"
       inkscape:connector-curvature="0"
       style="fill:#097ebe" /><path
       class="st2"
       d="m 554.6,238.4 c -4.1,0 -7.3,-1.1 -9.6,-3.4 -2.3,-2.3 -3.5,-5.5 -3.5,-9.6 0,-4.3 1.1,-7.6 3.2,-9.9 2.1,-2.3 5.1,-3.5 8.8,-3.5 3.6,0 6.4,1 8.4,3.1 2,2 3,4.9 3,8.5 v 3.4 h -16.4 c 0.1,2 0.7,3.5 1.8,4.6 1.1,1.1 2.6,1.7 4.6,1.7 1.5,0 3,-0.2 4.3,-0.5 1.4,-0.3 2.8,-0.8 4.3,-1.5 v 5.4 c -1.2,0.6 -2.5,1.1 -3.9,1.4 -1.4,0.2 -3.1,0.3 -5,0.3 z m -1,-21.4 c -1.5,0 -2.6,0.5 -3.5,1.4 -0.8,0.9 -1.3,2.3 -1.4,4 h 9.7 c 0,-1.7 -0.5,-3 -1.3,-4 -0.9,-1 -2,-1.4 -3.5,-1.4 z"
       id="path3194"
       inkscape:connector-curvature="0"
       style="fill:#097ebe" /><path
       class="st2"
       d="m 586.7,238 -1.3,-3.5 h -0.2 c -1.2,1.5 -2.4,2.5 -3.6,3.1 -1.2,0.6 -2.8,0.9 -4.8,0.9 -2.4,0 -4.4,-0.7 -5.8,-2.1 -1.4,-1.4 -2.1,-3.4 -2.1,-6 0,-2.7 0.9,-4.7 2.8,-6 1.9,-1.3 4.7,-2 8.5,-2.1 l 4.4,-0.1 V 221 c 0,-2.6 -1.3,-3.9 -4,-3.9 -2,0 -4.4,0.6 -7.2,1.8 l -2.3,-4.7 c 2.9,-1.5 6.2,-2.3 9.7,-2.3 3.4,0 6,0.7 7.9,2.2 1.9,1.5 2.7,3.7 2.7,6.8 v 17 h -4.7 z m -2,-11.8 -2.7,0.1 c -2,0.1 -3.5,0.4 -4.5,1.1 -1,0.7 -1.5,1.7 -1.5,3.1 0,2 1.1,2.9 3.4,2.9 1.6,0 2.9,-0.5 3.9,-1.4 1,-0.9 1.4,-2.2 1.4,-3.7 v -2.1 z"
       id="path3196"
       inkscape:connector-curvature="0"
       style="fill:#097ebe" /><path
       class="st2"
       d="m 612.9,212 c 0.9,0 1.7,0.1 2.3,0.2 l -0.5,6.5 c -0.6,-0.2 -1.2,-0.2 -2,-0.2 -2.2,0 -3.9,0.6 -5.2,1.7 -1.2,1.1 -1.9,2.7 -1.9,4.8 v 13 h -6.9 v -25.4 h 5.3 l 1,4.3 h 0.3 c 0.8,-1.4 1.9,-2.6 3.2,-3.4 1.4,-1 2.9,-1.5 4.4,-1.5 z"
       id="path3198"
       inkscape:connector-curvature="0"
       style="fill:#097ebe" /><path
       class="st2"
       d="m 643.4,238 h -6.9 v -14.9 c 0,-1.8 -0.3,-3.2 -1,-4.1 -0.7,-0.9 -1.7,-1.4 -3.1,-1.4 -1.9,0 -3.3,0.6 -4.2,1.9 -0.9,1.3 -1.3,3.4 -1.3,6.5 v 12 H 620 v -25.4 h 5.3 l 0.9,3.3 h 0.4 c 0.8,-1.2 1.8,-2.2 3.2,-2.8 1.4,-0.6 2.9,-0.9 4.6,-0.9 3,0 5.2,0.8 6.7,2.4 1.5,1.6 2.3,3.9 2.3,6.9 V 238 z"
       id="path3200"
       inkscape:connector-curvature="0"
       style="fill:#097ebe" /><path
       class="st2"
       d="m 650.3,205.9 c 0,-2.3 1.3,-3.4 3.8,-3.4 2.5,0 3.8,1.1 3.8,3.4 0,1.1 -0.3,1.9 -0.9,2.5 -0.6,0.6 -1.6,0.9 -2.8,0.9 -2.7,0.1 -3.9,-1.1 -3.9,-3.4 z m 7.2,32.1 h -6.9 v -25.4 h 6.9 V 238 z"
       id="path3202"
       inkscape:connector-curvature="0"
       style="fill:#097ebe" /><path
       class="st2"
       d="m 688.3,238 h -6.9 v -14.9 c 0,-1.8 -0.3,-3.2 -1,-4.1 -0.7,-0.9 -1.7,-1.4 -3.1,-1.4 -1.9,0 -3.3,0.6 -4.2,1.9 -0.9,1.3 -1.3,3.4 -1.3,6.5 v 12 h -6.9 v -25.4 h 5.3 l 0.9,3.3 h 0.4 c 0.8,-1.2 1.8,-2.2 3.2,-2.8 1.4,-0.6 2.9,-0.9 4.6,-0.9 3,0 5.2,0.8 6.7,2.4 1.5,1.6 2.3,3.9 2.3,6.9 V 238 z"
       id="path3204"
       inkscape:connector-curvature="0"
       style="fill:#097ebe" /><path
       class="st2"
       d="m 717.6,212.5 v 3.5 l -4,1 c 0.7,1.1 1.1,2.4 1.1,3.8 0,2.7 -1,4.9 -2.9,6.4 -1.9,1.5 -4.5,2.3 -7.9,2.3 l -1.3,-0.1 -1,-0.1 c -0.7,0.5 -1.1,1.2 -1.1,1.8 0,1 1.3,1.5 3.8,1.5 h 4.3 c 2.8,0 4.9,0.6 6.4,1.8 1.5,1.2 2.2,3 2.2,5.3 0,3 -1.2,5.3 -3.7,6.9 -2.5,1.6 -6,2.5 -10.7,2.5 -3.6,0 -6.3,-0.6 -8.1,-1.9 -1.9,-1.2 -2.8,-3 -2.8,-5.2 0,-1.5 0.5,-2.8 1.4,-3.8 0.9,-1 2.4,-1.8 4.2,-2.2 -0.7,-0.3 -1.3,-0.8 -1.9,-1.5 -0.5,-0.7 -0.8,-1.4 -0.8,-2.2 0,-1 0.3,-1.8 0.8,-2.4 0.6,-0.6 1.4,-1.3 2.4,-1.9 -1.3,-0.6 -2.4,-1.5 -3.2,-2.8 -0.8,-1.3 -1.2,-2.8 -1.2,-4.5 0,-2.8 0.9,-4.9 2.7,-6.4 1.8,-1.5 4.4,-2.3 7.7,-2.3 0.7,0 1.6,0.1 2.5,0.2 0.9,0.1 1.6,0.2 1.9,0.3 h 9.2 z m -19.7,29.1 c 0,1 0.5,1.7 1.4,2.3 0.9,0.5 2.2,0.8 3.9,0.8 2.5,0 4.4,-0.3 5.8,-1 1.4,-0.7 2.1,-1.6 2.1,-2.8 0,-1 -0.4,-1.6 -1.3,-2 -0.8,-0.4 -2.1,-0.5 -3.9,-0.5 h -3.6 c -1.3,0 -2.3,0.3 -3.2,0.9 -0.9,0.6 -1.2,1.3 -1.2,2.3 z m 2.5,-20.7 c 0,1.4 0.3,2.5 0.9,3.3 0.6,0.8 1.6,1.2 2.9,1.2 1.3,0 2.3,-0.4 2.9,-1.2 0.6,-0.8 0.9,-1.9 0.9,-3.3 0,-3.1 -1.3,-4.6 -3.8,-4.6 -2.5,0 -3.8,1.5 -3.8,4.6 z"
       id="path3206"
       inkscape:connector-curvature="0"
       style="fill:#097ebe" /><path
       class="st2"
       d="m 748.5,238 -8,-26.1 h -0.2 c 0.3,5.3 0.4,8.9 0.4,10.6 V 238 h -6.3 v -33.3 h 9.6 l 7.9,25.4 h 0.1 l 8.4,-25.4 H 770 V 238 h -6.6 v -15.8 c 0,-0.7 0,-1.6 0,-2.6 0,-1 0.1,-3.6 0.3,-7.7 h -0.2 L 755,238 h -6.5 z"
       id="path3208"
       inkscape:connector-curvature="0"
       style="fill:#097ebe" /><path
       class="st2"
       d="m 800.9,225.2 c 0,4.1 -1.1,7.4 -3.3,9.7 -2.2,2.3 -5.2,3.5 -9.1,3.5 -2.4,0 -4.6,-0.5 -6.5,-1.6 -1.9,-1.1 -3.3,-2.6 -4.3,-4.6 -1,-2 -1.5,-4.3 -1.5,-7 0,-4.2 1.1,-7.4 3.3,-9.7 2.2,-2.3 5.2,-3.5 9.2,-3.5 2.4,0 4.6,0.5 6.5,1.6 1.9,1.1 3.3,2.6 4.3,4.6 0.9,2 1.4,4.3 1.4,7 z m -17.6,0 c 0,2.5 0.4,4.4 1.2,5.7 0.8,1.3 2.2,1.9 4,1.9 1.9,0 3.2,-0.6 4,-1.9 0.8,-1.3 1.2,-3.2 1.2,-5.7 0,-2.5 -0.4,-4.4 -1.2,-5.7 -0.8,-1.3 -2.2,-1.9 -4,-1.9 -1.9,0 -3.2,0.6 -4,1.9 -0.8,1.3 -1.2,3.2 -1.2,5.7 z"
       id="path3210"
       inkscape:connector-curvature="0"
       style="fill:#097ebe" /><path
       class="st2"
       d="M 812.7,238 803,212.6 h 7.3 l 4.9,14.5 c 0.5,1.8 0.9,3.6 1,5.2 h 0.1 c 0.1,-1.5 0.4,-3.2 1,-5.2 l 4.9,-14.5 h 7.3 l -9.7,25.4 h -7.1 z"
       id="path3212"
       inkscape:connector-curvature="0"
       style="fill:#097ebe" /><path
       class="st2"
       d="m 844.7,238.4 c -4.1,0 -7.3,-1.1 -9.6,-3.4 -2.3,-2.3 -3.5,-5.5 -3.5,-9.6 0,-4.3 1.1,-7.6 3.2,-9.9 2.1,-2.3 5.1,-3.5 8.8,-3.5 3.6,0 6.4,1 8.4,3.1 2,2 3,4.9 3,8.5 v 3.4 h -16.4 c 0.1,2 0.7,3.5 1.8,4.6 1.1,1.1 2.6,1.7 4.6,1.7 1.5,0 3,-0.2 4.3,-0.5 1.4,-0.3 2.8,-0.8 4.3,-1.5 v 5.4 c -1.2,0.6 -2.5,1.1 -3.9,1.4 -1.4,0.3 -3,0.3 -5,0.3 z m -1,-21.4 c -1.5,0 -2.6,0.5 -3.5,1.4 -0.8,0.9 -1.3,2.3 -1.4,4 h 9.7 c 0,-1.7 -0.5,-3 -1.3,-4 -0.8,-1 -2,-1.4 -3.5,-1.4 z"
       id="path3214"
       inkscape:connector-curvature="0"
       style="fill:#097ebe" /><path
       class="st2"
       d="m 883.5,238 h -6.9 v -14.9 c 0,-1.8 -0.3,-3.2 -0.9,-4.1 -0.6,-0.9 -1.6,-1.4 -2.9,-1.4 -1.8,0 -3.1,0.7 -3.9,2 -0.8,1.3 -1.2,3.5 -1.2,6.4 v 12 h -6.9 v -25.4 h 5.3 l 0.9,3.3 h 0.4 c 0.7,-1.2 1.7,-2.1 3,-2.7 1.3,-0.7 2.8,-1 4.4,-1 3.8,0 6.4,1.2 7.7,3.7 h 0.6 c 0.7,-1.2 1.7,-2.1 3,-2.8 1.3,-0.7 2.8,-1 4.5,-1 2.9,0 5.1,0.7 6.5,2.2 1.4,1.5 2.2,3.9 2.2,7.1 V 238 h -7 v -14.9 c 0,-1.8 -0.3,-3.2 -0.9,-4.1 -0.6,-0.9 -1.6,-1.4 -2.9,-1.4 -1.7,0 -3,0.6 -3.8,1.8 -0.8,1.2 -1.3,3.1 -1.3,5.8 V 238 z"
       id="path3216"
       inkscape:connector-curvature="0"
       style="fill:#097ebe" /><path
       class="st2"
       d="m 918,238.4 c -4.1,0 -7.3,-1.1 -9.6,-3.4 -2.3,-2.3 -3.5,-5.5 -3.5,-9.6 0,-4.3 1.1,-7.6 3.2,-9.9 2.1,-2.3 5.1,-3.5 8.8,-3.5 3.6,0 6.4,1 8.4,3.1 2,2 3,4.9 3,8.5 V 227 H 912 c 0.1,2 0.7,3.5 1.8,4.6 1.1,1.1 2.6,1.7 4.6,1.7 1.5,0 3,-0.2 4.3,-0.5 1.4,-0.3 2.8,-0.8 4.3,-1.5 v 5.4 c -1.2,0.6 -2.5,1.1 -3.9,1.4 -1.4,0.3 -3.1,0.3 -5.1,0.3 z M 917,217 c -1.5,0 -2.6,0.5 -3.5,1.4 -0.8,0.9 -1.3,2.3 -1.4,4 h 9.7 c 0,-1.7 -0.5,-3 -1.3,-4 -0.8,-1 -2,-1.4 -3.5,-1.4 z"
       id="path3218"
       inkscape:connector-curvature="0"
       style="fill:#097ebe" /><path
       class="st2"
       d="m 957.5,238 h -6.9 v -14.9 c 0,-1.8 -0.3,-3.2 -1,-4.1 -0.7,-0.9 -1.7,-1.4 -3.1,-1.4 -1.9,0 -3.3,0.6 -4.2,1.9 -0.9,1.3 -1.3,3.4 -1.3,6.5 v 12 h -7 v -25.4 h 5.3 l 0.9,3.3 h 0.4 c 0.8,-1.2 1.8,-2.2 3.2,-2.8 1.4,-0.6 2.9,-0.9 4.6,-0.9 3,0 5.2,0.8 6.7,2.4 1.5,1.6 2.3,3.9 2.3,6.9 V 238 z"
       id="path3220"
       inkscape:connector-curvature="0"
       style="fill:#097ebe" /><path
       class="st2"
       d="m 975.4,232.9 c 1.2,0 2.7,-0.3 4.4,-0.8 v 5.2 c -1.7,0.8 -3.9,1.2 -6.4,1.2 -2.8,0 -4.8,-0.7 -6.1,-2.1 -1.3,-1.4 -1.9,-3.5 -1.9,-6.3 v -12.3 h -3.3 v -2.9 l 3.8,-2.3 2,-5.4 h 4.4 v 5.4 h 7.1 v 5.2 h -7.1 V 230 c 0,1 0.3,1.7 0.8,2.2 0.5,0.5 1.4,0.7 2.3,0.7 z"
       id="path3222"
       inkscape:connector-curvature="0"
       style="fill:#097ebe" /></g><g
     transform="matrix(0.49813869,0,0,0.49813869,245.23478,47.564779)"
     id="g3120"
     inkscape:export-filename="/home/serlo/Schreibtisch/Logo_Extremely High.png"
     inkscape:export-xdpi="1180.0291"
     inkscape:export-ydpi="1180.0291"><g
       id="g3140"><path
         style="fill:#007ec1"
         inkscape:connector-curvature="0"
         id="path3122"
         d="m 395.826,236.763 c -0.113,0 -0.258,-0.057 -0.357,-0.278 -0.113,-0.18 -0.656,-1.586 -1.244,-3.272 -3.785,-11.073 -11.857,-26.647 -19.244,-37.062 -5.301,-7.465 -18.145,-20.682 -26.945,-27.775 -12.609,-10.108 -28.797,-20.753 -52.443,-34.54 C 277.362,123.177 261.56,112.076 248.587,100.868 234.263,88.459 226.777,79.686 219.969,67.342 210.34,49.797 204.51,33.331 203.982,22.087 c -0.129,-2.529 -0.029,-3.729 0.271,-4.036 0.415,-0.457 1.108,0.308 2.643,2.872 5.065,8.529 12.802,17.953 20.717,25.118 14.259,12.917 30.461,23.717 52.492,34.983 17.774,9.072 44.019,23.173 52.034,27.888 19.953,11.831 40.428,27.975 56.215,44.271 3.285,3.371 9.945,10.773 10.658,11.823 0.029,0.05 0.029,0.093 0.014,0.171 -0.057,0.35 -1.07,1.144 -2.955,2.264 -6.131,3.601 -11.646,8.344 -14.404,12.416 -0.242,0.35 -0.371,0.558 -0.4,0.615 0.172,-0.043 1.059,-0.822 1.887,-1.571 3.959,-3.623 9.916,-7.431 15.889,-10.187 l 2.299,-1.043 0.029,0.028 3.271,4.322 c 4.658,6.137 7.602,10.366 9.859,14.174 0.887,1.536 1.914,3.364 1.928,3.436 0,0.15 -0.812,0.415 -1.113,0.472 -2.371,0.658 -9.258,4.386 -12.273,6.708 -2.914,2.25 -5.414,4.744 -5.43,5.251 0,0.021 0,0.036 0.016,0.043 l 0,0 c 0,0 0,0 0.014,0 0.242,0 1.471,-0.357 2.943,-0.893 4.172,-1.551 9.287,-2.464 14.016,-2.464 2.572,0 4.857,0.285 6.857,0.771 2.658,0.686 7.559,2.572 7.572,3.064 0,0.243 -2.229,1.45 -3.428,2.072 -6.23,3.272 -13.287,8.315 -17.959,12.823 -5.588,5.344 -9.373,11.216 -10.674,16.645 -0.431,1.898 -0.773,2.64 -1.144,2.64 z" /><path
         style="fill:#007ec1"
         inkscape:connector-curvature="0"
         id="path3124"
         d="m 393.939,302.028 -9.287,-21.009 c 1.486,-28.597 -8.043,-52.628 -16.301,-67.78 -4.9,-7.958 -10.402,-15.595 -16.402,-22.625 -8.123,-9.073 -17.838,-17.859 -28.91,-26.275 -8.674,-5.993 -21.125,-14.352 -31.327,-19.917 -0.149,-0.107 -16.366,-9.787 -31.203,-20.673 C 242.242,111.019 230.241,96.488 224.733,88.974 219.111,81.665 213.61,72.078 209.259,62.013 204.066,50.012 200.708,37.825 199.508,26.709 l 0.093,-0.014 c 0.043,0.185 3.893,22.974 17.517,45.956 6.443,10.366 15.38,21.039 26.539,31.711 l 0.042,-0.029 c 0.157,0.086 13.33,11.667 23.846,18.917 1.271,0.885 4.472,2.979 4.472,2.979 5.558,3.614 12.816,8.308 15.895,10.007 0.236,0.166 24.839,14.803 46.484,31.262 10.902,8.272 21.938,18.474 28.77,26.617 0.07,0.079 5.828,6.63 12.172,18.381 5.844,10.78 13.43,28.361 16.244,50.457 l 2.443,39.062 -0.086,0.013 z" /><path
         style="fill:#007ec1"
         inkscape:connector-curvature="0"
         id="path3126"
         d="m 383.225,256.537 0,0 c -0.258,0 -1.344,-1.507 -2.285,-3.028 l -0.086,-0.128 c -6.174,-9.887 -16.646,-19.439 -26.061,-23.718 -3.115,-1.436 -9.338,-3.187 -12.816,-3.614 -1.121,-0.171 -3.307,-0.293 -5.551,-0.293 -0.885,0 -1.715,0.021 -2.473,0.057 l -5.072,0.222 v -0.043 l -0.092,-2.943 c -0.242,-6.059 -3.344,-12.395 -8.521,-17.374 l -1.445,-1.494 0.059,-0.021 1.5,-0.642 c 2.908,-1.394 7.787,-2.515 12.717,-2.951 3.328,-0.264 3.734,-0.493 3.756,-0.579 -0.027,-0.093 -0.607,-0.286 -5.371,-0.393 -0.33,-0.015 -0.686,-0.021 -1.029,-0.021 -3.572,0 -7.328,0.564 -11.814,1.786 l -2.787,0.708 -0.014,-0.007 -3.172,-2.15 c -3.9,-2.601 -10.402,-6.351 -15.888,-9.129 -1.442,-0.722 -4.144,-2.186 -4.157,-2.408 -0.015,-0.486 7.243,-2.271 12.186,-3.058 5.301,-0.958 11.51,-1.465 17.023,-1.465 3.18,0 5.967,0.207 8.08,0.493 0.287,0.064 0.529,0.093 0.729,0.093 0.201,0 0.236,-0.05 0.236,-0.05 -0.135,-0.093 -1.766,-0.45 -3.979,-0.807 -4.537,-0.757 -9.516,-1.101 -14.789,-1.101 -7.758,0 -15.637,0.779 -22.774,2.293 l -3.385,0.765 v -0.015 l -7.051,-3.801 c -20.309,-10.951 -29.911,-16.866 -42.77,-26.574 -6.136,-4.693 -20.645,-17.988 -25.074,-22.996 -3.072,-3.557 -7.637,-9.101 -7.644,-9.529 -0.036,-0.086 -1.171,-1.829 -2.929,-4.479 -10.473,-15.724 -15.895,-31.855 -16.566,-49.313 -0.5,-13.159 1.45,-24.911 6.293,-37.905 2.229,-6.001 8.758,-18.388 9.73,-18.424 0.3,0 0.672,7.637 0.686,7.93 0.257,6.022 0.614,9.215 1.399,13.137 3.258,16.316 10.087,32.818 20.332,48.978 3.086,4.908 8.379,12.316 11.494,16.194 9.28,11.538 35.797,32.041 60.372,46.842 17.817,10.701 23.36,14.33 34.918,22.881 9.887,7.308 17.889,14.759 25.139,23.396 6.658,7.93 12.688,17.252 17.475,26.918 4.785,9.658 8.357,19.716 10.33,29.132 1.285,6.214 1.6,8.201 1.301,8.572 -0.061,0.042 -0.104,0.056 -0.16,0.056 l 0,0 z" /><path
         style="fill:#007ec1"
         inkscape:connector-curvature="0"
         id="path3128"
         d="m 386.295,303.187 h -0.084 c -10.416,-0.629 -31.705,-2.2 -57.357,-6.444 -30.947,-5.179 -58.979,-12.537 -83.289,-21.988 -9.852,-3.757 -24.196,-9.908 -36.669,-17.331 -15.359,-9.187 -23.731,-17.959 -24.938,-26.004 -0.472,-4.615 1.493,-8.586 5.815,-11.873 6.644,-5.079 17.066,-8.115 32.79,-9.615 0.179,-0.014 19.709,-1.3 34.483,-2.843 7.994,-0.735 14.13,-1.729 18.203,-3.029 0.771,-0.127 1.857,-0.478 2.886,-0.971 1.128,-0.601 1.8,-1.301 1.985,-2.107 0.172,-0.593 0.015,-1.222 -0.372,-1.794 -7.472,-5.829 -24.346,-10.529 -40.662,-15.044 -0.951,-0.322 -1.901,-0.557 -2.858,-0.857 -17.188,-4.822 -37.519,-9.787 -49.663,-12.83 -4.301,-1.065 -7.701,-1.878 -9.616,-2.357 l 0.014,-0.086 c 0.229,0.029 23.403,3.357 48.385,8.744 14.652,3.215 27.082,6.466 36.869,9.744 12.259,4.172 20.496,8.272 24.389,12.259 1.043,1.357 1.408,2.628 1.086,3.729 -0.443,1.6 -2.293,3.101 -5.487,4.286 -0.071,0.021 -0.15,0.036 -0.229,0.071 -0.036,0.014 -0.057,0.036 -0.114,0.057 -8.801,3.129 -24.868,5.951 -47.777,8.387 -0.085,0.014 -8.751,0.629 -17.402,2.701 -7.937,1.985 -17.502,5.508 -17.767,11.522 0,6.408 7.936,14.573 22.295,22.924 14.63,8.537 35.041,16.766 57.493,23.125 29.432,8.352 62.592,12.723 98.59,13.029 h 0.014 v 0.022 l 8.987,14.573 z" /><path
         style="fill:#007ec1"
         inkscape:connector-curvature="0"
         id="path3130"
         d="m 466.949,275.183 c -4.586,0 -8.33,-3.615 -8.5,-8.123 -0.188,-4.636 3.5,-8.586 8.186,-8.793 0.129,-0.014 0.229,-0.014 0.342,-0.014 4.602,0 8.346,3.585 8.488,8.143 0.113,2.264 -0.701,4.416 -2.258,6.08 -1.559,1.665 -3.658,2.601 -5.916,2.701 -0.113,0.006 -0.229,0.006 -0.342,0.006 z" /><path
         style="fill:#007ec1"
         inkscape:connector-curvature="0"
         id="path3132"
         d="m 381.324,373.238 c -1.615,0 -3.615,-0.043 -5.529,-0.093 -19.816,-0.394 -41.041,-4.579 -61.33,-12.081 -26.802,-9.959 -44.076,-18.073 -63.807,-29.933 -19.617,-11.801 -41.691,-23.252 -57.636,-29.989 -16.095,-6.758 -31.262,-11.873 -45.077,-15.28 -13.83,-3.408 -26.718,-5.129 -38.305,-5.129 -1.4,0 -2.808,0.015 -4.157,0.072 -10.409,0.363 -19.002,1.907 -26.26,4.607 -1.171,0.479 -2.229,0.736 -2.586,0.736 -0.072,0 -0.115,-0.008 -0.157,-0.037 -0.029,-0.02 -0.043,-0.057 -0.036,-0.113 0.021,-0.6 1.764,-2.243 4.422,-4.229 7.373,-5.458 18.996,-9.644 31.883,-11.401 4.036,-0.55 9.951,-0.9 16.688,-0.9 8.794,0 17.281,0.536 22.71,1.415 14.652,2.314 34.405,8.543 58.679,18.473 9.03,3.701 29.904,13.052 37.876,16.931 9.137,4.43 20.073,9.188 27.803,12.181 12.06,4.579 40.284,13.923 51.221,16.881 11.752,3.215 24.152,5.029 37.955,5.65 1.215,0.058 2.643,0.086 4.229,0.086 10.744,0 26.418,-1.208 32.246,-2.487 8.889,-1.921 12.402,-2.878 19.861,-5.436 12.072,-4.229 20.559,-8.602 36.289,-18.859 13.787,-8.958 19.846,-13.645 29.561,-22.731 3.873,-3.622 5.445,-4.858 9.916,-7.623 3.744,-2.293 8.088,-4.365 11.316,-5.393 l 2.17,-0.708 -1.471,-0.95 c -6.5,-3.915 -12.172,-9.687 -16.83,-17.073 -2.586,-4.015 -7.887,-9.022 -11.844,-11.095 -5.545,-2.921 -9.674,-3.979 -15.703,-3.979 -0.814,0 -1.672,0.029 -2.613,0.072 -8.602,0.4 -14.945,2.271 -25.133,7.58 -3.158,1.657 -4.857,2.536 -5.357,2.536 -0.086,0 -0.158,-0.042 -0.172,-0.1 -0.156,-0.386 1.258,-1.729 4.658,-4.865 2.385,-2.186 5.715,-4.979 7.473,-6.236 4.484,-3.158 11.273,-6.573 15.816,-8.008 3.484,-1.086 4.557,-1.208 10.43,-1.486 2.113,-0.107 3.4,-0.15 4.428,-0.15 2.357,0 3.602,0.229 5.459,0.636 9.271,2.128 15.943,6.501 23.846,15.509 10.102,11.615 20.402,19.745 27.531,21.674 0.787,0.214 2.271,0.657 2.271,0.857 0.016,0.257 -2.086,1.344 -3.199,1.886 -4.814,2.3 -14.604,8.294 -19.389,11.83 -10.5,7.674 -19.617,17.317 -28.646,30.325 -8.502,12.195 -21.26,24.653 -34.176,33.312 -17.473,11.709 -36.332,18.961 -57.664,22.261 -4.031,0.633 -5.888,0.854 -9.66,0.854 z" /></g></g></svg>